<svg xmlns="http://www.w3.org/2000/svg" style="position: absolute; width: 0; height: 0; overflow: hidden;">
    <symbol id="icon-close" viewBox="0 0 100 100">
      <title>close</title><path d="M11.11 18.18l7.07-7.07 70.712 70.71-7.072 7.07z"/><path d="M11.11 81.82l70.71-70.71 7.072 7.07L18.18 88.89z"/>
    </symbol>
    <symbol id="icon-instagram" viewBox="0 0 100 100">
      <title>instagram</title><path d="M50 8.67c13.47 0 15.07.06 20.36.3a27.63 27.63 0 0 1 9.35 1.73 15.59 15.59 0 0 1 5.79 3.76 15.8 15.8 0 0 1 3.78 5.79 27.74 27.74 0 0 1 1.73 9.35c.24 5.32.3 6.91.3 20.36s-.06 15.07-.3 20.36a27.63 27.63 0 0 1-1.73 9.35 15.59 15.59 0 0 1-3.76 5.79 15.8 15.8 0 0 1-5.79 3.78A27.74 27.74 0 0 1 70.41 91c-5.32.24-6.91.3-20.36.3S35 91.23 29.69 91a27.63 27.63 0 0 1-9.35-1.73 15.59 15.59 0 0 1-5.79-3.76 15.8 15.8 0 0 1-3.78-5.79A27.74 27.74 0 0 1 9 70.35C8.79 65 8.73 63.44 8.73 50s.06-15.07.3-20.36a27.63 27.63 0 0 1 1.73-9.35 15.59 15.59 0 0 1 3.76-5.79 15.8 15.8 0 0 1 5.79-3.78A27.74 27.74 0 0 1 29.67 9C35 8.73 36.56 8.67 50 8.67zm0-9.08c-13.69 0-15.4.06-20.78.3A36.84 36.84 0 0 0 17 2.23a24.61 24.61 0 0 0-8.92 5.83A24.7 24.7 0 0 0 2.25 17 37 37 0 0 0-.09 29.21c-.24 5.4-.3 7.11-.3 20.8s.06 15.4.3 20.78A36.84 36.84 0 0 0 2.25 83a24.61 24.61 0 0 0 5.83 9A24.64 24.64 0 0 0 17 97.77a37 37 0 0 0 12.23 2.34c5.38.24 7.09.3 20.78.3s15.4-.06 20.78-.3A36.84 36.84 0 0 0 83 97.77 25.76 25.76 0 0 0 97.75 83a37 37 0 0 0 2.34-12.23c.24-5.38.3-7.09.3-20.78s-.06-15.4-.3-20.78A36.84 36.84 0 0 0 97.75 17a23.61 23.61 0 0 0-5.77-9 24.64 24.64 0 0 0-8.92-5.81A37 37 0 0 0 70.83-.09C65.43-.35 63.72-.41 50-.41z"/><path d="M50 24.11A25.9 25.9 0 1 0 75.93 50 25.9 25.9 0 0 0 50 24.11zm0 42.7A16.8 16.8 0 1 1 66.83 50 16.8 16.8 0 0 1 50 66.81zM83 23.09a6 6 0 1 1-6-6 6 6 0 0 1 6 6z"/>
    </symbol>
    <symbol id="icon-logo-close" viewBox="0 0 53.14 100">
      <title>logo-close</title><path d="M0 100v-6.29h46.85V6.29H0V0h53.14v100H0z"/>
    </symbol>
    <symbol id="icon-logo-open" viewBox="0 0 53.14 100">
      <title>logo-open</title><path d="M0 100V0h53.14v6.29H6.29v87.42h46.85V100H0z"/>
    </symbol>
    <symbol id="icon-logo" viewBox="0 0 193.71 100">
      <title>logo</title><path d="M93.71 77.01V51.1H70.02v-6.29h23.69V22.99H100v21.82h23.64v6.29H100v25.91h-6.29zM0 100V0h53.14v6.29H6.29v87.42h46.85V100H0zM140.57 100v-6.29h46.85V6.29h-46.85V0h53.14v100h-53.14z"/>
    </symbol>
    <symbol id="icon-menu" viewBox="0 0 100 100">
      <title>menu</title><path d="M0 13.75h100v10H0zM0 45h100v10H0zM0 76.25h100v10H0z"/>
    </symbol>
    <symbol id="icon-twitter" viewBox="0 0 100 100">
      <title>twitter</title><path d="M100 19a40.45 40.45 0 0 1-11.78 3.22 20.63 20.63 0 0 0 9-11.35 41.25 41.25 0 0 1-13 5 20.54 20.54 0 0 0-35 18.71A58.22 58.22 0 0 1 7 13.11a20.54 20.54 0 0 0 6.35 27.38A20.53 20.53 0 0 1 4 37.93v.25A20.51 20.51 0 0 0 20.5 58.3a20.55 20.55 0 0 1-5.41.72 21.1 21.1 0 0 1-3.87-.37 20.58 20.58 0 0 0 19.16 14.26A41.14 41.14 0 0 1 4.9 81.69 40.78 40.78 0 0 1 0 81.4a58 58 0 0 0 31.46 9.22c37.73 0 58.37-31.26 58.37-58.37 0-.9 0-1.78-.06-2.66A41.29 41.29 0 0 0 100 19z"/>
    </symbol></svg>